<?xml version="1.0" encoding="utf-8"?>
<svg width="297.00003px" height="48.714233px" viewBox="0 0 297.00003 48.714233" version="1.1" xmlns:xlink="http://www.w3.org/1999/xlink" xmlns="http://www.w3.org/2000/svg">
  <defs>
    <path d="M0 0L27 0L27 27L0 27L0 0Z" id="path_1" />
    <clipPath id="mask_1">
      <use xlink:href="#path_1" />
    </clipPath>
  </defs>
  <g id="Group-17">
    <g id="Group-8">
      <path d="M20.999 0L276.001 0Q276.517 0 277.031 0.0252942Q277.546 0.0505884 278.059 0.101116Q278.572 0.151643 279.082 0.227282Q279.592 0.302921 280.098 0.40349Q280.603 0.504058 281.103 0.629314Q281.603 0.754569 282.097 0.90421Q282.59 1.05385 283.075 1.22752Q283.561 1.40118 284.037 1.59845Q284.513 1.79573 284.979 2.01613Q285.445 2.23653 285.9 2.47954Q286.354 2.72254 286.797 2.98756Q287.239 3.25257 287.667 3.53897Q288.096 3.82536 288.51 4.13244Q288.924 4.43953 289.323 4.76655Q289.721 5.09358 290.103 5.43977Q290.485 5.78595 290.85 6.15046Q291.214 6.51498 291.56 6.89693Q291.906 7.27889 292.233 7.67738Q292.56 8.07586 292.868 8.48991Q293.175 8.90396 293.461 9.33258Q293.747 9.7612 294.012 10.2034Q294.277 10.6455 294.52 11.1001Q294.763 11.5548 294.984 12.0208Q295.204 12.4868 295.402 12.963Q295.599 13.4393 295.773 13.9246Q295.946 14.41 296.096 14.9033Q296.245 15.3966 296.371 15.8967Q296.496 16.3967 296.597 16.9023Q296.697 17.4079 296.773 17.9178Q296.848 18.4277 296.899 18.9407Q296.949 19.4538 296.975 19.9686Q297 20.4835 297 20.999L297 27.7153Q297 28.2308 296.975 28.7457Q296.949 29.2605 296.899 29.7735Q296.848 30.2866 296.773 30.7965Q296.697 31.3064 296.597 31.812Q296.496 32.3176 296.371 32.8176Q296.245 33.3177 296.096 33.811Q295.946 34.3043 295.772 34.7896Q295.599 35.275 295.402 35.7513Q295.204 36.2275 294.984 36.6935Q294.763 37.1595 294.52 37.6141Q294.277 38.0688 294.012 38.5109Q293.747 38.9531 293.461 39.3817Q293.175 39.8103 292.868 40.2244Q292.56 40.6384 292.233 41.0369Q291.906 41.4354 291.56 41.8174Q291.214 42.1993 290.85 42.5638Q290.485 42.9283 290.103 43.2745Q289.721 43.6207 289.323 43.9477Q288.924 44.2748 288.51 44.5818Q288.096 44.8889 287.667 45.1753Q287.239 45.4617 286.797 45.7267Q286.354 45.9917 285.9 46.2348Q285.445 46.4778 284.979 46.6982Q284.513 46.9186 284.037 47.1158Q283.561 47.3131 283.075 47.4868Q282.59 47.6604 282.097 47.8101Q281.603 47.9597 281.103 48.085Q280.603 48.2102 280.098 48.3108Q279.592 48.4114 279.082 48.487Q278.572 48.5626 278.059 48.6132Q277.546 48.6637 277.031 48.689Q276.517 48.7143 276.001 48.7143L20.999 48.7143Q20.4835 48.7143 19.9686 48.689Q19.4538 48.6637 18.9407 48.6132Q18.4277 48.5626 17.9178 48.487Q17.4079 48.4114 16.9023 48.3108Q16.3967 48.2102 15.8967 48.085Q15.3966 47.9597 14.9033 47.8101Q14.41 47.6604 13.9246 47.4868Q13.4393 47.3131 12.963 47.1158Q12.4868 46.9186 12.0208 46.6982Q11.5548 46.4778 11.1001 46.2348Q10.6455 45.9917 10.2034 45.7267Q9.7612 45.4617 9.33258 45.1753Q8.90396 44.8889 8.48991 44.5818Q8.07586 44.2748 7.67738 43.9477Q7.27889 43.6207 6.89693 43.2745Q6.51498 42.9283 6.15046 42.5638Q5.78595 42.1993 5.43977 41.8174Q5.09358 41.4354 4.76655 41.0369Q4.43953 40.6384 4.13244 40.2244Q3.82536 39.8103 3.53897 39.3817Q3.25257 38.9531 2.98756 38.5109Q2.72254 38.0688 2.47954 37.6141Q2.23653 37.1595 2.01613 36.6935Q1.79573 36.2275 1.59845 35.7513Q1.40118 35.275 1.22752 34.7896Q1.05385 34.3043 0.90421 33.811Q0.754569 33.3177 0.629314 32.8176Q0.504058 32.3176 0.40349 31.812Q0.302921 31.3064 0.227282 30.7965Q0.151643 30.2866 0.101116 29.7735Q0.0505884 29.2605 0.0252942 28.7457Q0 28.2308 0 27.7153L0 20.999Q0 20.4835 0.0252942 19.9686Q0.0505884 19.4538 0.101116 18.9407Q0.151643 18.4277 0.227282 17.9178Q0.302921 17.4079 0.40349 16.9023Q0.504058 16.3967 0.629314 15.8967Q0.754569 15.3966 0.90421 14.9033Q1.05385 14.41 1.22752 13.9246Q1.40118 13.4393 1.59845 12.963Q1.79573 12.4868 2.01613 12.0208Q2.23653 11.5548 2.47954 11.1001Q2.72254 10.6455 2.98756 10.2034Q3.25257 9.7612 3.53897 9.33258Q3.82536 8.90396 4.13244 8.48991Q4.43953 8.07586 4.76655 7.67738Q5.09358 7.27889 5.43977 6.89693Q5.78595 6.51498 6.15046 6.15046Q6.51498 5.78595 6.89693 5.43977Q7.27889 5.09358 7.67738 4.76655Q8.07586 4.43953 8.48991 4.13244Q8.90396 3.82536 9.33258 3.53897Q9.7612 3.25257 10.2034 2.98756Q10.6455 2.72254 11.1001 2.47954Q11.5548 2.23653 12.0208 2.01613Q12.4868 1.79573 12.963 1.59845Q13.4393 1.40118 13.9246 1.22752Q14.41 1.05385 14.9033 0.90421Q15.3966 0.754569 15.8967 0.629314Q16.3967 0.504058 16.9023 0.40349Q17.4079 0.302921 17.9178 0.227282Q18.4277 0.151643 18.9407 0.101116Q19.4538 0.0505884 19.9686 0.0252942Q20.4835 0 20.999 0Z" id="Rectangle-7" fill="#000000" fill-rule="evenodd" stroke="none" />
      <path d="M258.625 33.625L258.625 31.575L262.35 31.575L262.35 17.425L258.625 17.425L258.625 15.375L268.375 15.375L268.375 17.425L264.65 17.425L264.65 31.575L268.375 31.575L268.375 33.625L258.625 33.625ZM243.3 33.625L243.3 15.375L249.175 15.375C250.308 15.375 251.292 15.5958 252.125 16.0375C252.958 16.4792 253.604 17.1 254.063 17.9C254.521 18.7 254.75 19.65 254.75 20.75C254.75 21.8333 254.521 22.7792 254.063 23.5875C253.604 24.3958 252.958 25.0208 252.125 25.4625C251.292 25.9042 250.308 26.125 249.175 26.125L245.55 26.125L245.55 33.625L243.3 33.625ZM245.55 24.1L249.175 24.1C250.158 24.1 250.946 23.7958 251.538 23.1875C252.129 22.5792 252.425 21.7667 252.425 20.75C252.425 19.7167 252.129 18.9 251.538 18.3C250.946 17.7 250.158 17.4 249.175 17.4L245.55 17.4L245.55 24.1ZM227.25 33.625L232 15.375L235.025 15.375L239.75 33.625L237.475 33.625L236.275 28.775L230.75 28.775L229.55 33.625L227.25 33.625ZM231.2 26.875L235.8 26.875L234.4 21.25C234.133 20.1833 233.925 19.2917 233.775 18.575C233.625 17.8583 233.533 17.3917 233.5 17.175C233.467 17.3917 233.375 17.8583 233.225 18.575C233.075 19.2917 232.867 20.175 232.6 21.225L231.2 26.875ZM203.075 33.825C202.142 33.825 201.329 33.6792 200.637 33.3875C199.946 33.0958 199.396 32.6833 198.988 32.15C198.579 31.6167 198.333 30.9833 198.25 30.25L200.5 30.25C200.6 30.7333 200.871 31.1167 201.313 31.4C201.754 31.6833 202.342 31.825 203.075 31.825L204.125 31.825C205.008 31.825 205.667 31.6458 206.1 31.2875C206.533 30.9292 206.75 30.45 206.75 29.85C206.75 29.2667 206.554 28.8042 206.163 28.4625C205.771 28.1208 205.192 27.8917 204.425 27.775L202.575 27.475C201.225 27.2417 200.221 26.8208 199.563 26.2125C198.904 25.6042 198.575 24.7167 198.575 23.55C198.575 22.3167 198.967 21.3625 199.75 20.6875C200.533 20.0125 201.708 19.675 203.275 19.675L204.225 19.675C205.542 19.675 206.6 19.9833 207.4 20.6C208.2 21.2167 208.683 22.05 208.85 23.1L206.6 23.1C206.5 22.6667 206.25 22.3208 205.85 22.0625C205.45 21.8042 204.908 21.675 204.225 21.675L203.275 21.675C202.425 21.675 201.804 21.8333 201.413 22.15C201.021 22.4667 200.825 22.9417 200.825 23.575C200.825 24.1417 200.992 24.5583 201.325 24.825C201.658 25.0917 202.183 25.2833 202.9 25.4L204.75 25.7C206.233 25.9333 207.313 26.3667 207.988 27C208.663 27.6333 209 28.55 209 29.75C209 31.0167 208.596 32.0125 207.788 32.7375C206.979 33.4625 205.758 33.825 204.125 33.825L203.075 33.825ZM184.075 33.625L181.875 19.875L183.875 19.875L185.25 29.625C185.3 29.9917 185.354 30.3875 185.413 30.8125C185.471 31.2375 185.517 31.5917 185.55 31.875C185.583 31.5917 185.637 31.2375 185.712 30.8125C185.788 30.3875 185.85 29.9917 185.9 29.625L187.425 19.875L189.575 19.875L191.1 29.625C191.15 29.9917 191.213 30.3875 191.288 30.8125C191.363 31.2375 191.417 31.5917 191.45 31.875C191.483 31.5917 191.538 31.2375 191.613 30.8125C191.688 30.3875 191.75 29.9917 191.8 29.625L193.225 19.875L195.125 19.875L192.825 33.625L190.35 33.625L188.875 24.125C188.808 23.6583 188.733 23.1917 188.65 22.725C188.567 22.2583 188.508 21.8917 188.475 21.625C188.442 21.8917 188.392 22.2583 188.325 22.725C188.258 23.1917 188.183 23.6583 188.1 24.125L186.55 33.625L184.075 33.625ZM173.5 33.875C172.417 33.875 171.471 33.6583 170.663 33.225C169.854 32.7917 169.229 32.1792 168.788 31.3875C168.346 30.5958 168.125 29.675 168.125 28.625L168.125 24.875C168.125 23.8083 168.346 22.8833 168.788 22.1C169.229 21.3167 169.854 20.7083 170.663 20.275C171.471 19.8417 172.417 19.625 173.5 19.625C174.583 19.625 175.529 19.8417 176.337 20.275C177.146 20.7083 177.771 21.3167 178.212 22.1C178.654 22.8833 178.875 23.8083 178.875 24.875L178.875 27.3L170.325 27.3L170.325 28.625C170.325 29.7083 170.6 30.5375 171.15 31.1125C171.7 31.6875 172.483 31.975 173.5 31.975C174.367 31.975 175.067 31.8208 175.6 31.5125C176.133 31.2042 176.458 30.7417 176.575 30.125L178.825 30.125C178.675 31.275 178.112 32.1875 177.137 32.8625C176.163 33.5375 174.95 33.875 173.5 33.875L173.5 33.875ZM176.675 25.8L176.675 24.875C176.675 23.7917 176.404 22.9583 175.863 22.375C175.321 21.7917 174.533 21.5 173.5 21.5C172.483 21.5 171.7 21.7917 171.15 22.375C170.6 22.9583 170.325 23.7917 170.325 24.875L170.325 25.6L176.85 25.6L176.675 25.8ZM153.25 33.625L153.25 15.375L156.25 15.375L161.825 31C161.792 30.5833 161.754 30.0708 161.712 29.4625C161.671 28.8542 161.638 28.2125 161.613 27.5375C161.587 26.8625 161.575 26.225 161.575 25.625L161.575 15.375L163.75 15.375L163.75 33.625L160.75 33.625L155.2 18C155.233 18.4 155.267 18.9042 155.3 19.5125C155.333 20.1208 155.362 20.7625 155.387 21.4375C155.413 22.1125 155.425 22.7583 155.425 23.375L155.425 33.625L153.25 33.625ZM127.7 33.875C126.333 33.875 125.229 33.4167 124.387 32.5C123.546 31.5833 123.125 30.3417 123.125 28.775L123.125 24.75C123.125 23.1667 123.542 21.9167 124.375 21C125.208 20.0833 126.317 19.625 127.7 19.625C128.833 19.625 129.742 19.9333 130.425 20.55C131.108 21.1667 131.45 21.9917 131.45 23.025L131 22.5L131.5 22.5L131.45 19.375L131.45 15.375L133.7 15.375L133.7 33.625L131.45 33.625L131.45 31L131 31L131.45 30.475C131.45 31.525 131.108 32.3542 130.425 32.9625C129.742 33.5708 128.833 33.875 127.7 33.875L127.7 33.875ZM128.45 31.925C129.383 31.925 130.117 31.6333 130.65 31.05C131.183 30.4667 131.45 29.6583 131.45 28.625L131.45 24.875C131.45 23.8417 131.183 23.0333 130.65 22.45C130.117 21.8667 129.383 21.575 128.45 21.575C127.5 21.575 126.75 21.8583 126.2 22.425C125.65 22.9917 125.375 23.8083 125.375 24.875L125.375 28.625C125.375 29.6917 125.65 30.5083 126.2 31.075C126.75 31.6417 127.5 31.925 128.45 31.925L128.45 31.925ZM115.375 33.625C114.575 33.625 113.875 33.4667 113.275 33.15C112.675 32.8333 112.208 32.3833 111.875 31.8C111.542 31.2167 111.375 30.5333 111.375 29.75L111.375 17.425L106.75 17.425L106.75 15.375L113.625 15.375L113.625 29.75C113.625 30.3167 113.783 30.7625 114.1 31.0875C114.417 31.4125 114.842 31.575 115.375 31.575L119.75 31.575L119.75 33.625L115.375 33.625ZM93.775 33.625L93.775 19.875L95.975 19.875L95.975 22.5L96.5 22.5L95.775 24.125C95.775 22.6417 96.0958 21.5208 96.7375 20.7625C97.3792 20.0042 98.3333 19.625 99.6 19.625C101.05 19.625 102.204 20.0792 103.063 20.9875C103.921 21.8958 104.35 23.125 104.35 24.675L104.35 25.5L102.1 25.5L102.1 24.875C102.1 23.7917 101.837 22.9625 101.313 22.3875C100.788 21.8125 100.042 21.525 99.075 21.525C98.125 21.525 97.3792 21.8167 96.8375 22.4C96.2958 22.9833 96.025 23.8083 96.025 24.875L96.025 33.625L93.775 33.625ZM83.5 33.825C82.4 33.825 81.45 33.6167 80.65 33.2C79.85 32.7833 79.2292 32.1792 78.7875 31.3875C78.3458 30.5958 78.125 29.6583 78.125 28.575L78.125 24.925C78.125 23.825 78.3458 22.8833 78.7875 22.1C79.2292 21.3167 79.85 20.7167 80.65 20.3C81.45 19.8833 82.4 19.675 83.5 19.675C84.6 19.675 85.55 19.8833 86.35 20.3C87.15 20.7167 87.7708 21.3167 88.2125 22.1C88.6542 22.8833 88.875 23.8167 88.875 24.9L88.875 28.575C88.875 29.6583 88.6542 30.5958 88.2125 31.3875C87.7708 32.1792 87.15 32.7833 86.35 33.2C85.55 33.6167 84.6 33.825 83.5 33.825L83.5 33.825ZM83.5 31.825C84.4833 31.825 85.25 31.55 85.8 31C86.35 30.45 86.625 29.6417 86.625 28.575L86.625 24.925C86.625 23.8583 86.35 23.05 85.8 22.5C85.25 21.95 84.4833 21.675 83.5 21.675C82.5333 21.675 81.7708 21.95 81.2125 22.5C80.6542 23.05 80.375 23.8583 80.375 24.925L80.375 28.575C80.375 29.6417 80.6542 30.45 81.2125 31C81.7708 31.55 82.5333 31.825 83.5 31.825L83.5 31.825ZM63.725 33.625L61.625 15.375L63.775 15.375L65.15 28.875C65.1833 29.2417 65.2167 29.6208 65.25 30.0125C65.2833 30.4042 65.3125 30.775 65.3375 31.125C65.3625 31.475 65.375 31.7667 65.375 32C65.4083 31.7667 65.4375 31.475 65.4625 31.125C65.4875 30.775 65.5208 30.4042 65.5625 30.0125C65.6042 29.6208 65.65 29.2417 65.7 28.875L67.4 15.375L69.725 15.375L71.275 28.875C71.325 29.2417 71.3708 29.6208 71.4125 30.0125C71.4542 30.4042 71.4958 30.775 71.5375 31.125C71.5792 31.475 71.6083 31.7667 71.625 32C71.6417 31.7667 71.6625 31.475 71.6875 31.125C71.7125 30.775 71.7458 30.4042 71.7875 30.0125C71.8292 29.6208 71.8667 29.2417 71.9 28.875L73.325 15.375L75.375 15.375L73.225 33.625L70.4 33.625L68.85 19.875C68.8167 19.4917 68.7792 19.1167 68.7375 18.75C68.6958 18.3833 68.6583 18.0417 68.625 17.725C68.5917 17.4083 68.5667 17.15 68.55 16.95C68.5333 17.15 68.5042 17.4083 68.4625 17.725C68.4208 18.0417 68.3833 18.3833 68.35 18.75C68.3167 19.1167 68.275 19.4917 68.225 19.875L66.55 33.625L63.725 33.625Z" id="World-News-API" fill="#FFFFFF" stroke="none" />
      <g id="original-world-bolder-2" transform="translate(20 11.014282)">
        <g id="Group">
          <g id="Mask-group">
            <path d="M0 0L27 0L27 27L0 27L0 0Z" id="SVGID_1_" fill="none" fill-rule="evenodd" stroke="none" />
            <g clip-path="url(#mask_1)">
              <path d="M26.3355 13.0193C26.3355 9.38254 24.7317 6.12091 22.2048 3.87779C22.4187 3.27737 22.638 2.18582 21.763 1.43459C21.211 0.96052 20.4298 0.814279 19.6742 1.04826C19.2958 1.16388 18.9589 1.39254 18.6441 1.66819C17.2378 1.10311 15.7071 0.783813 14.1012 0.783813C10.8233 0.783813 7.84883 2.08673 5.65004 4.19282C4.09044 3.83956 2.66947 4.20981 1.80238 5.23806C0.624242 6.63237 0.688223 8.96811 1.94344 11.6765C1.89501 12.118 1.86576 12.5651 1.86576 13.0193C1.86576 13.2546 1.888 13.4844 1.9011 13.7164C1.74877 13.9498 1.60435 14.1881 1.47456 14.4342C0.336323 16.5936 0.232733 19.6269 2.23989 21.2441C3.1673 21.9899 4.43715 22.3665 6.02021 22.3665C6.0848 22.3665 6.15274 22.3625 6.21825 22.3612C8.34971 24.1621 11.099 25.2535 14.1012 25.2535C15.3431 25.2535 16.541 25.0646 17.6713 24.719C18.3602 25.3979 19.1087 25.92 19.8826 26.1212C20.1263 26.1846 20.3652 26.2163 20.598 26.2163C21.1183 26.2163 21.6095 26.0578 22.0652 25.7434C22.6429 25.3437 22.9902 24.8185 23.0987 24.1811C23.2547 23.2591 22.8574 22.3451 22.5701 21.8275C24.8859 19.6001 26.3355 16.4782 26.3355 13.0193M19.9302 1.88307C20.3957 1.74169 20.8697 1.82091 21.1939 2.09755C21.5604 2.4125 21.5556 2.89037 21.4706 3.27585C20.8691 2.81992 20.2266 2.4189 19.5463 2.07873C19.6718 2.00554 19.7952 1.92435 19.9302 1.88307M17.8901 2.58697C17.7813 2.76755 17.6795 2.95356 17.5899 3.15928C16.8633 3.18274 16.2765 3.77258 16.2765 4.50417C16.2765 5.2506 16.8846 5.85811 17.6317 5.85811C18.3775 5.85811 18.9856 5.2506 18.9856 4.50417C18.9856 4.0544 18.7504 3.67471 18.4116 3.42853C18.4976 3.23918 18.5993 3.0774 18.7032 2.91791C22.5365 4.67203 25.2118 8.53477 25.2118 13.0193C25.2118 17.8713 22.0805 21.9962 17.7362 23.5068C17.3252 23.0242 16.9255 22.465 16.5514 21.8399C16.7695 21.5995 16.9115 21.2873 16.9115 20.938C16.9115 20.1915 16.3033 19.5846 15.5575 19.5846C15.1273 19.5846 14.7599 19.7993 14.5119 20.1133C12.3786 19.7985 10.302 18.9878 8.45358 17.7929C8.33934 17.1542 8.2714 16.5188 8.25615 15.9439C8.7945 15.7646 9.18995 15.2724 9.18995 14.6752C9.18995 13.9288 8.58184 13.3213 7.8348 13.3213C7.08897 13.3213 6.48085 13.9288 6.48085 14.6752C6.48085 15.2608 6.85986 15.7491 7.38145 15.9374C7.38968 16.3076 7.42197 16.7029 7.46889 17.1087C5.9556 15.9647 4.64248 14.5508 3.62916 12.9485C4.37011 12.1802 5.25974 11.5434 6.24595 11.0733C6.49426 11.3505 6.84492 11.5329 7.24496 11.5329C7.99079 11.5329 8.5989 10.926 8.5989 10.1795C8.5989 9.43309 7.99079 8.82558 7.24496 8.82558C6.49913 8.82558 5.89102 9.43309 5.89102 10.1795C5.89102 10.2104 5.90656 10.2362 5.90868 10.2665C4.88713 10.748 3.95759 11.3931 3.16972 12.1703C3.12737 12.0931 3.08502 12.0159 3.04419 11.938C3.58986 6.3164 8.33872 1.90747 14.1012 1.90747C15.4332 1.90748 16.7055 2.15517 17.8901 2.58697M2.4702 5.80105C3.02348 5.14592 3.90641 4.86267 4.9179 4.96069C3.64745 6.40681 2.71638 8.15126 2.23835 10.0772C1.62505 8.24311 1.68934 6.72579 2.4702 5.80105M2.07536 15.2247C2.51287 17.6141 3.64502 19.7594 5.25671 21.4493C4.23546 21.3522 3.40646 21.0618 2.78828 20.5641C1.25825 19.3309 1.27743 17.0266 2.07536 15.2247M14.1012 24.13C8.18853 24.13 3.35436 19.4853 3.02167 13.6556C3.02592 13.6501 3.02959 13.6443 3.03385 13.6388C4.24521 15.483 5.83862 17.0774 7.6645 18.3155C7.80891 19.008 8.00908 19.6827 8.2711 20.2896C8.02584 20.5347 7.87381 20.8731 7.87381 21.2463C7.87381 21.9927 8.48192 22.5996 9.22775 22.5996C9.97358 22.5996 10.5817 21.9927 10.5817 21.2463C10.5817 20.4999 9.97358 19.8923 9.22775 19.8923C9.16865 19.8923 9.11807 19.9187 9.0611 19.9261C8.93649 19.633 8.82864 19.3175 8.73297 18.9874C10.4364 19.9684 12.2988 20.6414 14.2054 20.9478C14.2112 21.6894 14.8154 22.2919 15.5575 22.2919C15.6361 22.2919 15.7047 22.2599 15.7799 22.2469C16.095 22.7744 16.4475 23.2915 16.832 23.7764C15.9567 23.9989 15.0451 24.13 14.1012 24.13M22.2371 24.0348C22.1689 24.437 21.9507 24.7611 21.568 25.0244C21.122 25.3327 20.6455 25.4156 20.1032 25.2754C19.6255 25.1513 19.1109 24.8386 18.593 24.3878C19.7988 23.9096 20.9148 23.2536 21.898 22.4384C22.1171 22.8821 22.3309 23.4843 22.2371 24.0348" id="Shape" fill="#FFFFFF" fill-rule="evenodd" stroke="none" />
            </g>
          </g>
          <g id="Mask-group">
            <path d="M0 0L27 0L27 27L0 27L0 0Z" id="SVGID_1_" fill="none" fill-rule="evenodd" stroke="none" />
            <g clip-path="url(#mask_1)">
              <path d="M11.5566 6.78359C12.1136 6.78359 12.5931 6.44395 12.8003 5.96136C14.1399 6.176 16.0377 6.80179 17.7061 8.20304C18.0665 8.50558 18.3882 8.83804 18.6926 9.18423C17.1881 10.1835 15.3251 10.9746 13.6528 11.2743C13.4054 10.9466 13.0309 10.7205 12.5901 10.7205C11.8442 10.7205 11.2361 11.3274 11.2361 12.0739C11.2361 12.8203 11.8442 13.4278 12.5901 13.4278C13.3219 13.4278 13.9135 12.8406 13.9361 12.1135C15.7236 11.7706 17.664 10.9297 19.2398 9.8679C20.12 11.0924 20.6955 12.5466 20.9617 14.2185C20.4712 14.4221 20.1239 14.9045 20.1239 15.4678C20.1239 16.2143 20.732 16.8212 21.4778 16.8212C22.2237 16.8212 22.8318 16.2143 22.8318 15.4678C22.8318 14.8514 22.4089 14.3512 21.8447 14.1882C21.5662 12.3338 20.9313 10.7225 19.9536 9.36267C20.3408 9.06188 20.6863 8.74899 20.9959 8.42924C21.1464 8.48736 21.3069 8.52689 21.4779 8.52689C22.2237 8.52689 22.8318 7.91938 22.8318 7.17294C22.8318 6.4265 22.2237 5.81899 21.4779 5.81899C20.732 5.81899 20.1239 6.4265 20.1239 7.17294C20.1239 7.42757 20.2138 7.65264 20.3366 7.85639C20.0615 8.13714 19.7559 8.4137 19.4113 8.68052C19.0612 8.275 18.688 7.88663 18.2679 7.53397C16.4234 5.98489 14.3282 5.31294 12.8417 5.09C12.6876 4.51182 12.1821 4.07568 11.5566 4.07568C10.8096 4.07568 10.2015 4.68319 10.2015 5.42963C10.2015 6.17608 10.8096 6.78359 11.5566 6.78359" id="Shape" fill="#FFFFFF" fill-rule="evenodd" stroke="none" />
            </g>
          </g>
        </g>
      </g>
    </g>
    <g id="original-world-bolder-2" transform="translate(20 11.01416)">
      <g id="Group">
        <g id="Mask-group">
          <path d="M0 0L27 0L27 27L0 27L0 0Z" id="SVGID_1_" fill="none" fill-rule="evenodd" stroke="none" />
          <g clip-path="url(#mask_1)">
            <path d="M26.3355 13.0193C26.3355 9.38254 24.7317 6.12091 22.2048 3.87779C22.4187 3.27737 22.638 2.18582 21.763 1.43459C21.211 0.96052 20.4298 0.814279 19.6742 1.04826C19.2958 1.16388 18.9589 1.39254 18.6441 1.66819C17.2378 1.10311 15.7071 0.783813 14.1012 0.783813C10.8233 0.783813 7.84883 2.08673 5.65004 4.19282C4.09044 3.83956 2.66947 4.20981 1.80238 5.23806C0.624242 6.63237 0.688223 8.96811 1.94344 11.6765C1.89501 12.118 1.86576 12.5651 1.86576 13.0193C1.86576 13.2546 1.888 13.4844 1.9011 13.7164C1.74877 13.9498 1.60435 14.1881 1.47456 14.4342C0.336323 16.5936 0.232733 19.6269 2.23989 21.2441C3.1673 21.9899 4.43715 22.3665 6.02021 22.3665C6.0848 22.3665 6.15274 22.3625 6.21825 22.3612C8.34971 24.1621 11.099 25.2535 14.1012 25.2535C15.3431 25.2535 16.541 25.0646 17.6713 24.719C18.3602 25.3979 19.1087 25.92 19.8826 26.1212C20.1263 26.1846 20.3652 26.2163 20.598 26.2163C21.1183 26.2163 21.6095 26.0578 22.0652 25.7434C22.6429 25.3437 22.9902 24.8185 23.0987 24.1811C23.2547 23.2591 22.8574 22.3451 22.5701 21.8275C24.8859 19.6001 26.3355 16.4782 26.3355 13.0193M19.9302 1.88307C20.3957 1.74169 20.8697 1.82091 21.1939 2.09755C21.5604 2.4125 21.5556 2.89037 21.4706 3.27585C20.8691 2.81992 20.2266 2.4189 19.5463 2.07873C19.6718 2.00554 19.7952 1.92435 19.9302 1.88307M17.8901 2.58697C17.7813 2.76755 17.6795 2.95356 17.5899 3.15928C16.8633 3.18274 16.2765 3.77258 16.2765 4.50417C16.2765 5.2506 16.8846 5.85811 17.6317 5.85811C18.3775 5.85811 18.9856 5.2506 18.9856 4.50417C18.9856 4.0544 18.7504 3.67471 18.4116 3.42853C18.4976 3.23918 18.5993 3.0774 18.7032 2.91791C22.5365 4.67203 25.2118 8.53477 25.2118 13.0193C25.2118 17.8713 22.0805 21.9962 17.7362 23.5068C17.3252 23.0242 16.9255 22.465 16.5514 21.8399C16.7695 21.5995 16.9115 21.2873 16.9115 20.938C16.9115 20.1915 16.3033 19.5846 15.5575 19.5846C15.1273 19.5846 14.7599 19.7993 14.5119 20.1133C12.3786 19.7985 10.302 18.9878 8.45358 17.7929C8.33934 17.1542 8.2714 16.5188 8.25615 15.9439C8.7945 15.7646 9.18995 15.2724 9.18995 14.6752C9.18995 13.9288 8.58184 13.3213 7.8348 13.3213C7.08897 13.3213 6.48085 13.9288 6.48085 14.6752C6.48085 15.2608 6.85986 15.7491 7.38145 15.9374C7.38968 16.3076 7.42197 16.7029 7.46889 17.1087C5.9556 15.9647 4.64248 14.5508 3.62916 12.9485C4.37011 12.1802 5.25974 11.5434 6.24595 11.0733C6.49426 11.3505 6.84492 11.5329 7.24496 11.5329C7.99079 11.5329 8.5989 10.926 8.5989 10.1795C8.5989 9.43309 7.99079 8.82558 7.24496 8.82558C6.49913 8.82558 5.89102 9.43309 5.89102 10.1795C5.89102 10.2104 5.90656 10.2362 5.90868 10.2665C4.88713 10.748 3.95759 11.3931 3.16972 12.1703C3.12737 12.0931 3.08502 12.0159 3.04419 11.938C3.58986 6.3164 8.33872 1.90747 14.1012 1.90747C15.4332 1.90748 16.7055 2.15517 17.8901 2.58697M2.4702 5.80105C3.02348 5.14592 3.90641 4.86267 4.9179 4.96069C3.64745 6.40681 2.71638 8.15126 2.23835 10.0772C1.62505 8.24311 1.68934 6.72579 2.4702 5.80105M2.07536 15.2247C2.51287 17.6141 3.64502 19.7594 5.25671 21.4493C4.23546 21.3522 3.40646 21.0618 2.78828 20.5641C1.25825 19.3309 1.27743 17.0266 2.07536 15.2247M14.1012 24.13C8.18853 24.13 3.35436 19.4853 3.02167 13.6556C3.02592 13.6501 3.02959 13.6443 3.03385 13.6388C4.24521 15.483 5.83862 17.0774 7.6645 18.3155C7.80891 19.008 8.00908 19.6827 8.2711 20.2896C8.02584 20.5347 7.87381 20.8731 7.87381 21.2463C7.87381 21.9927 8.48192 22.5996 9.22775 22.5996C9.97358 22.5996 10.5817 21.9927 10.5817 21.2463C10.5817 20.4999 9.97358 19.8923 9.22775 19.8923C9.16865 19.8923 9.11807 19.9187 9.0611 19.9261C8.93649 19.633 8.82864 19.3175 8.73297 18.9874C10.4364 19.9684 12.2988 20.6414 14.2054 20.9478C14.2112 21.6894 14.8154 22.2919 15.5575 22.2919C15.6361 22.2919 15.7047 22.2599 15.7799 22.2469C16.095 22.7744 16.4475 23.2915 16.832 23.7764C15.9567 23.9989 15.0451 24.13 14.1012 24.13M22.2371 24.0348C22.1689 24.437 21.9507 24.7611 21.568 25.0244C21.122 25.3327 20.6455 25.4156 20.1032 25.2754C19.6255 25.1513 19.1109 24.8386 18.593 24.3878C19.7988 23.9096 20.9148 23.2536 21.898 22.4384C22.1171 22.8821 22.3309 23.4843 22.2371 24.0348" id="Shape" fill="#FFFFFF" fill-rule="evenodd" stroke="none" />
          </g>
        </g>
        <g id="Mask-group">
          <path d="M0 0L27 0L27 27L0 27L0 0Z" id="SVGID_1_" fill="none" fill-rule="evenodd" stroke="none" />
          <g clip-path="url(#mask_1)">
            <path d="M11.5566 6.78359C12.1136 6.78359 12.5931 6.44395 12.8003 5.96136C14.1399 6.176 16.0377 6.80179 17.7061 8.20304C18.0665 8.50558 18.3882 8.83804 18.6926 9.18423C17.1881 10.1835 15.3251 10.9746 13.6528 11.2743C13.4054 10.9466 13.0309 10.7205 12.5901 10.7205C11.8442 10.7205 11.2361 11.3274 11.2361 12.0739C11.2361 12.8203 11.8442 13.4278 12.5901 13.4278C13.3219 13.4278 13.9135 12.8406 13.9361 12.1135C15.7236 11.7706 17.664 10.9297 19.2398 9.8679C20.12 11.0924 20.6955 12.5466 20.9617 14.2185C20.4712 14.4221 20.1239 14.9045 20.1239 15.4678C20.1239 16.2143 20.732 16.8212 21.4778 16.8212C22.2237 16.8212 22.8318 16.2143 22.8318 15.4678C22.8318 14.8514 22.4089 14.3512 21.8447 14.1882C21.5662 12.3338 20.9313 10.7225 19.9536 9.36267C20.3408 9.06188 20.6863 8.74899 20.9959 8.42924C21.1464 8.48736 21.3069 8.52689 21.4779 8.52689C22.2237 8.52689 22.8318 7.91938 22.8318 7.17294C22.8318 6.4265 22.2237 5.81899 21.4779 5.81899C20.732 5.81899 20.1239 6.4265 20.1239 7.17294C20.1239 7.42757 20.2138 7.65264 20.3366 7.85639C20.0615 8.13714 19.7559 8.4137 19.4113 8.68052C19.0612 8.275 18.688 7.88663 18.2679 7.53397C16.4234 5.98489 14.3282 5.31294 12.8417 5.09C12.6876 4.51182 12.1821 4.07568 11.5566 4.07568C10.8096 4.07568 10.2015 4.68319 10.2015 5.42963C10.2015 6.17608 10.8096 6.78359 11.5566 6.78359" id="Shape" fill="#FFFFFF" fill-rule="evenodd" stroke="none" />
          </g>
        </g>
      </g>
    </g>
  </g>
</svg>